<?xml version="1.0" standalone="no"?>
<!DOCTYPE svg PUBLIC "-//W3C//DTD SVG 20010904//EN"
 "http://www.w3.org/TR/2001/REC-SVG-20010904/DTD/svg10.dtd">
<svg version="1.0" xmlns="http://www.w3.org/2000/svg"
 width="3000.000000pt" height="3000.000000pt" viewBox="0 0 3000.000000 3000.000000"
 preserveAspectRatio="xMidYMid meet">
<metadata>
Created by potrace 1.11, written by Peter Selinger 2001-2013
</metadata>
<g transform="translate(0.000000,3000.000000) scale(0.100000,-0.100000)"
fill="#000000" stroke="none">
<path d="M7019 29996 c-2 -2 -53 -7 -114 -11 -60 -3 -128 -8 -150 -10 -115
-11 -163 -16 -195 -20 -19 -3 -57 -7 -85 -10 -67 -8 -288 -42 -390 -61 -118
-21 -349 -71 -445 -95 -63 -17 -123 -32 -133 -34 -99 -22 -526 -156 -662 -209
-38 -15 -106 -41 -150 -58 -74 -29 -250 -104 -370 -158 -63 -28 -360 -176
-440 -220 -401 -217 -829 -506 -1200 -811 -389 -321 -841 -788 -1131 -1169
-27 -36 -52 -67 -55 -70 -17 -16 -243 -339 -327 -470 -363 -563 -680 -1249
-857 -1855 -15 -49 -30 -101 -35 -115 -25 -71 -127 -497 -145 -604 -3 -17 -8
-38 -10 -46 -2 -8 -7 -35 -10 -60 -3 -25 -8 -52 -10 -60 -5 -19 -12 -61 -21
-125 -3 -27 -7 -52 -9 -55 -2 -3 -6 -34 -10 -70 -4 -36 -9 -74 -11 -85 -2 -10
-6 -51 -10 -90 -3 -38 -7 -77 -9 -85 -2 -8 -7 -55 -10 -105 -4 -49 -9 -101
-12 -115 -2 -14 -7 -215 -10 -447 l-6 -423 29 0 c16 -1 1610 -1 3542 -1 l3512
-1 1 -21 c0 -12 1 -1609 1 -3549 l1 -3527 341 4 c338 4 443 8 574 19 162 15
189 17 217 21 17 2 57 6 90 10 60 7 76 9 150 19 59 8 286 45 315 51 14 3 63
12 110 21 47 9 123 25 170 36 47 11 94 21 105 24 54 10 401 107 485 134 52 17
102 33 110 35 37 9 341 119 375 135 11 5 54 23 97 39 331 129 837 388 1143
586 335 215 527 354 805 584 63 52 135 113 159 136 291 263 416 388 618 612
113 126 183 208 283 333 15 19 129 167 188 245 120 158 369 545 482 750 18 33
42 76 53 95 40 71 207 408 252 510 50 113 178 429 190 470 4 14 13 39 20 55
20 45 121 359 150 466 92 336 171 700 200 919 15 114 18 136 21 155 2 11 6 49
9 85 3 36 8 72 10 80 2 8 7 53 10 100 4 47 8 92 10 100 24 127 24 1026 0 1190
-2 14 -6 61 -10 105 -6 83 -13 152 -20 194 -3 14 -7 52 -10 85 -3 34 -8 68
-11 77 -2 9 -7 34 -9 55 -20 173 -87 492 -179 859 -34 136 -188 605 -226 690
-5 11 -32 79 -61 150 -28 72 -71 172 -95 224 -24 51 -44 95 -44 97 0 6 -156
319 -189 377 -130 234 -149 268 -202 354 -75 121 -201 315 -209 323 -3 3 -19
25 -35 50 -202 304 -528 694 -855 1020 -185 185 -236 232 -460 426 -90 78
-299 241 -440 342 -85 61 -160 116 -167 122 -7 5 -14 10 -17 10 -3 0 -33 19
-68 43 -68 47 -251 162 -308 194 -19 11 -75 44 -125 73 -240 140 -611 317
-923 442 -226 90 -674 239 -822 273 -8 2 -60 14 -115 28 -183 45 -339 79 -470
102 -16 3 -41 7 -55 9 -89 17 -214 36 -265 42 -33 3 -67 8 -75 9 -8 2 -44 6
-80 10 -36 3 -76 8 -90 10 -14 2 -65 7 -115 11 -49 3 -101 9 -115 11 -31 6
-936 14 -941 9z m716 -670 c147 -6 195 -10 365 -27 119 -11 184 -18 220 -25
14 -2 45 -6 70 -10 40 -5 69 -9 190 -29 19 -3 91 -17 160 -31 69 -14 136 -27
150 -30 57 -11 315 -78 441 -114 454 -131 1023 -372 1412 -598 45 -26 90 -51
99 -57 197 -113 519 -330 688 -464 112 -88 132 -104 234 -189 261 -217 570
-523 796 -788 119 -139 305 -379 391 -504 24 -36 46 -67 49 -70 21 -21 197
-302 279 -443 91 -158 271 -504 271 -521 0 -2 17 -42 39 -88 53 -113 121 -280
171 -418 23 -63 47 -131 55 -150 61 -164 187 -629 230 -853 14 -73 27 -143 30
-157 3 -14 7 -41 10 -60 3 -19 6 -44 9 -55 3 -18 18 -116 21 -140 8 -72 18
-154 21 -168 2 -10 6 -53 9 -95 4 -42 8 -88 10 -101 25 -153 25 -840 0 -1116
-9 -110 -17 -181 -20 -210 -2 -16 -7 -52 -10 -80 -4 -27 -8 -63 -11 -80 -2
-16 -6 -52 -9 -80 -4 -27 -8 -57 -10 -65 -4 -14 -8 -35 -20 -112 -3 -18 -14
-78 -25 -133 -28 -137 -27 -134 -40 -190 -6 -27 -13 -58 -15 -67 -8 -38 -67
-258 -91 -338 -15 -46 -27 -91 -29 -100 -2 -8 -32 -98 -68 -200 -112 -320
-204 -537 -356 -840 -43 -85 -92 -179 -110 -208 -17 -29 -31 -55 -31 -57 0
-19 -314 -511 -403 -630 -12 -16 -49 -66 -81 -110 -61 -82 -200 -256 -247
-310 -159 -182 -219 -247 -388 -416 -334 -333 -636 -582 -1004 -828 -144 -96
-441 -281 -451 -281 -2 0 -33 -16 -68 -36 -72 -41 -293 -153 -418 -212 -325
-152 -873 -346 -1180 -417 -8 -2 -67 -16 -130 -30 -63 -15 -126 -29 -140 -31
-14 -3 -70 -14 -125 -25 -55 -11 -118 -22 -140 -25 -22 -2 -65 -9 -95 -14 -30
-5 -73 -11 -95 -14 -22 -3 -58 -8 -80 -10 -108 -15 -252 -28 -436 -41 l-76 -6
-1 3523 c-1 1938 -1 3532 -2 3544 l0 21 -3537 0 -3538 0 1 24 c8 131 15 234
19 261 2 18 6 65 10 103 4 39 8 77 10 85 1 8 6 42 9 75 9 75 62 398 77 462 6
27 13 59 15 73 3 14 16 72 30 130 14 58 27 112 29 120 2 8 13 51 25 95 261
965 738 1864 1394 2630 160 187 423 458 579 596 39 35 81 73 92 84 60 57 283
237 438 353 96 72 339 238 468 319 233 147 623 348 895 463 93 39 178 75 189
80 159 71 650 224 918 286 152 35 480 97 582 109 28 3 61 8 75 10 14 3 48 7
75 10 28 3 68 7 90 10 22 3 69 7 105 10 36 3 88 8 115 10 28 3 120 8 205 11
85 3 156 7 157 8 4 3 330 -3 458 -8z"/>
<path d="M22178 29995 c-2 -2 -50 -6 -107 -9 -57 -3 -120 -8 -140 -11 -20 -2
-63 -7 -96 -10 -70 -6 -219 -24 -255 -30 -14 -3 -50 -7 -80 -10 -30 -3 -62 -8
-70 -10 -8 -2 -31 -7 -50 -10 -19 -3 -62 -10 -95 -16 -33 -6 -73 -13 -90 -16
-53 -8 -418 -91 -500 -113 -376 -102 -752 -234 -1100 -387 -158 -70 -579 -281
-626 -314 -15 -10 -30 -19 -33 -19 -20 0 -364 -219 -645 -410 -64 -43 -420
-318 -441 -340 -3 -3 -23 -21 -46 -40 -221 -191 -264 -230 -454 -421 -140
-140 -184 -186 -300 -315 -132 -145 -449 -546 -540 -684 -8 -12 -27 -39 -41
-59 -96 -137 -282 -441 -398 -651 -63 -114 -223 -442 -271 -555 -23 -55 -48
-113 -55 -130 -119 -272 -305 -839 -351 -1065 -2 -14 -11 -47 -19 -75 -8 -27
-16 -61 -18 -75 -5 -26 -11 -54 -27 -125 -8 -36 -32 -163 -44 -238 -3 -15 -10
-53 -15 -85 -6 -31 -13 -79 -16 -107 -4 -27 -9 -63 -12 -80 -2 -16 -6 -46 -8
-65 -2 -19 -6 -53 -9 -75 -7 -50 -14 -120 -21 -210 -3 -38 -7 -90 -10 -115
-23 -246 -23 -743 -1 -1065 9 -121 18 -241 21 -255 2 -8 6 -44 10 -80 3 -36 8
-77 11 -91 2 -15 6 -47 9 -70 3 -24 7 -55 10 -69 2 -14 7 -43 10 -65 3 -23 8
-52 10 -65 3 -14 12 -65 21 -115 191 -1096 673 -2203 1353 -3110 71 -96 228
-294 241 -305 3 -3 29 -34 59 -70 178 -216 540 -582 781 -790 41 -36 77 -67
80 -70 13 -15 219 -177 336 -266 689 -519 1444 -902 2304 -1168 123 -38 531
-143 590 -152 19 -3 51 -9 70 -14 19 -5 51 -11 70 -14 19 -3 46 -8 60 -10 70
-14 262 -45 310 -52 86 -11 91 -12 155 -19 33 -3 71 -8 85 -10 14 -2 57 -7 95
-10 39 -4 88 -8 110 -10 236 -26 973 -25 1185 0 19 2 73 7 120 11 47 3 94 8
105 10 11 2 45 6 75 9 30 3 66 7 80 10 14 2 50 7 80 10 30 3 62 8 70 10 8 2
35 7 60 10 41 6 392 72 415 79 6 1 37 8 70 15 174 37 469 121 710 203 592 200
1153 472 1665 807 63 41 123 80 132 86 38 23 191 134 308 223 599 455 1145
1019 1562 1612 48 69 92 130 98 137 14 17 240 372 240 377 0 2 21 40 46 83
178 299 388 744 522 1103 98 264 245 745 265 866 3 16 12 56 20 89 9 33 18 73
21 89 3 16 10 52 16 80 15 72 19 97 25 131 3 17 10 56 16 88 12 71 17 102 39
252 5 39 12 97 15 130 3 33 8 71 10 85 2 14 7 52 10 85 3 33 8 87 11 120 4 33
8 256 11 496 l5 436 -3539 -1 -3540 -1 -1 3530 c0 1942 -1 3536 -1 3543 -1 11
-72 13 -371 11 -203 -1 -371 -3 -372 -4z m72 -704 c1 -20 1 -1612 1 -3538 l1
-3503 61 -1 c34 0 1627 -1 3540 -1 l3479 0 -7 -96 c-3 -53 -8 -115 -10 -137
-2 -22 -7 -67 -10 -100 -11 -111 -32 -292 -40 -335 -6 -30 -12 -69 -20 -130
-4 -25 -15 -88 -26 -140 -11 -52 -22 -106 -24 -120 -7 -37 -11 -56 -35 -155
-12 -49 -23 -97 -25 -105 -1 -8 -8 -35 -15 -60 -7 -25 -13 -52 -15 -60 -2 -8
-10 -37 -18 -65 -9 -27 -30 -97 -47 -155 -50 -167 -144 -430 -205 -575 -129
-308 -302 -657 -421 -850 -13 -22 -27 -46 -31 -54 -40 -88 -402 -609 -522
-751 -11 -14 -24 -29 -28 -35 -5 -5 -44 -53 -88 -105 -649 -773 -1505 -1417
-2415 -1816 -69 -31 -139 -62 -157 -70 -104 -47 -405 -154 -658 -234 -62 -19
-390 -105 -440 -114 -11 -2 -65 -14 -120 -25 -98 -21 -290 -55 -370 -66 -22
-3 -56 -8 -75 -11 -19 -3 -55 -8 -80 -10 -25 -3 -56 -6 -70 -9 -14 -2 -61 -7
-105 -10 -44 -4 -93 -9 -110 -11 -197 -24 -877 -24 -1105 0 -19 2 -69 7 -111
10 -42 4 -87 9 -100 11 -13 2 -67 9 -119 15 -111 13 -144 18 -183 26 -16 3
-38 7 -50 9 -19 2 -79 13 -217 39 -208 39 -565 134 -785 208 -878 295 -1646
737 -2335 1341 -136 120 -464 445 -575 571 -39 43 -75 84 -80 90 -80 89 -322
400 -406 521 -19 28 -37 52 -41 53 -5 2 -8 9 -8 15 0 6 -8 20 -18 31 -11 12
-58 83 -106 159 -327 516 -570 1038 -751 1611 -80 257 -181 669 -210 866 -2
14 -13 86 -24 160 -11 74 -23 158 -26 185 -3 28 -8 64 -10 80 -2 17 -7 68 -10
115 -4 47 -8 99 -11 115 -21 160 -21 821 1 1007 2 18 6 69 10 113 22 277 97
733 161 980 9 33 18 70 20 83 9 47 97 342 144 482 294 876 793 1721 1420 2404
149 162 456 460 570 552 19 16 37 31 40 34 41 46 386 310 565 432 121 82 381
248 389 248 2 0 43 23 92 52 180 104 425 224 719 353 261 115 814 292 1086
349 13 3 38 8 54 11 17 3 50 11 75 16 53 12 51 12 200 39 63 11 124 22 135 24
11 2 47 7 80 11 32 4 66 8 75 10 8 1 42 6 75 9 55 6 77 9 176 20 19 3 87 8
150 11 63 4 115 8 117 9 1 2 9 3 17 3 10 0 15 -11 15 -36z"/>
<path d="M22407 14844 c-1 -1 -76 -5 -167 -8 -91 -4 -181 -8 -200 -11 -19 -2
-69 -6 -110 -10 -72 -5 -131 -12 -195 -20 -16 -2 -57 -7 -90 -10 -33 -4 -67
-8 -75 -10 -8 -3 -38 -7 -66 -10 -28 -3 -61 -8 -74 -10 -13 -3 -40 -7 -60 -10
-20 -3 -47 -8 -60 -11 -14 -3 -36 -7 -50 -9 -104 -13 -483 -100 -675 -155 -77
-22 -147 -42 -155 -44 -42 -11 -202 -63 -235 -76 -11 -5 -54 -20 -95 -34 -86
-29 -255 -92 -285 -106 -11 -5 -68 -30 -128 -54 -322 -136 -659 -310 -992
-514 -198 -121 -609 -410 -740 -521 -17 -14 -51 -42 -75 -61 -24 -19 -48 -39
-54 -45 -6 -5 -40 -35 -76 -65 -35 -30 -72 -62 -80 -70 -9 -8 -56 -51 -105
-95 -140 -127 -449 -441 -545 -555 -11 -14 -42 -49 -68 -79 -472 -544 -907
-1246 -1197 -1930 -75 -178 -194 -488 -209 -546 -1 -5 -19 -63 -40 -129 -46
-145 -132 -458 -140 -510 -4 -21 -8 -41 -10 -45 -4 -6 -33 -139 -42 -191 -2
-14 -9 -45 -14 -70 -18 -84 -53 -298 -65 -395 -4 -27 -8 -57 -10 -65 -2 -8 -7
-53 -11 -100 -3 -47 -8 -87 -9 -90 -2 -3 -6 -46 -10 -95 -3 -50 -8 -106 -11
-125 -27 -230 -21 -927 11 -1215 3 -22 7 -71 10 -110 4 -38 8 -81 10 -95 2
-14 7 -52 10 -85 4 -33 8 -67 10 -75 2 -8 7 -35 10 -60 61 -452 220 -1072 386
-1505 13 -33 24 -62 24 -65 1 -3 7 -18 14 -35 6 -16 18 -46 25 -65 150 -382
415 -894 657 -1270 75 -116 273 -399 311 -445 9 -11 51 -65 93 -119 79 -101
206 -253 324 -385 98 -111 422 -435 531 -532 52 -46 97 -87 100 -90 30 -33
348 -286 535 -425 87 -66 395 -269 525 -346 481 -289 1000 -525 1525 -694 148
-48 318 -99 365 -109 8 -2 67 -17 130 -33 208 -54 586 -128 750 -147 65 -7
121 -15 150 -20 14 -2 57 -7 95 -11 39 -3 81 -9 95 -12 43 -8 1291 -11 1371
-2 42 4 105 11 140 15 35 4 78 9 94 11 17 2 46 5 65 8 19 3 55 8 80 11 25 4
61 9 80 11 38 6 189 31 230 39 14 2 39 7 55 10 532 102 1210 316 1640 520 258
121 463 227 608 311 32 19 60 34 62 34 8 0 302 185 427 268 648 436 1291 1043
1762 1667 161 212 395 561 489 726 13 24 42 76 64 114 90 158 217 405 273 530
12 28 37 82 55 120 161 350 362 959 450 1364 19 88 55 263 60 291 3 19 7 46
10 60 3 14 7 40 10 58 3 17 8 47 11 65 3 17 7 44 9 60 2 15 9 62 15 105 5 42
13 102 15 132 3 30 7 66 10 80 3 14 7 60 10 102 3 42 8 92 11 110 3 18 8 232
11 476 5 370 3 442 -8 443 -8 0 -1602 1 -3544 2 l-3530 2 -1 3540 c-1 1947 -2
3542 -3 3545 -1 5 -499 8 -504 4z m-167 -683 c3 -1 5 -1588 4 -3529 0 -1940 1
-3532 3 -3538 3 -8 981 -11 3544 -10 l3540 1 -5 -70 c-3 -38 -8 -104 -11 -145
-3 -41 -7 -91 -10 -110 -2 -19 -7 -64 -10 -100 -4 -36 -8 -76 -10 -90 -2 -14
-6 -44 -9 -67 -15 -108 -19 -135 -37 -238 -25 -139 -26 -141 -34 -195 -4 -24
-8 -47 -10 -51 -2 -3 -7 -20 -10 -37 -10 -57 -101 -415 -130 -507 -258 -848
-655 -1606 -1190 -2275 -96 -120 -113 -140 -234 -280 -107 -122 -478 -490
-601 -595 -58 -50 -107 -92 -110 -95 -14 -16 -219 -177 -325 -256 -397 -296
-881 -576 -1322 -764 -93 -39 -177 -75 -188 -80 -91 -42 -598 -213 -695 -235
-8 -2 -80 -20 -160 -40 -80 -20 -155 -39 -166 -41 -12 -2 -66 -13 -120 -25
-55 -11 -112 -23 -129 -25 -16 -3 -52 -9 -80 -14 -55 -11 -88 -16 -155 -25
-25 -3 -56 -8 -70 -10 -38 -6 -99 -13 -160 -20 -30 -3 -71 -8 -90 -10 -38 -5
-95 -10 -278 -22 -221 -14 -783 -7 -952 12 -19 2 -69 7 -110 10 -41 3 -86 8
-100 10 -14 2 -50 7 -80 10 -30 3 -66 8 -80 10 -14 2 -43 6 -65 10 -209 30
-473 83 -695 141 -835 217 -1619 589 -2305 1094 -55 40 -102 76 -105 79 -3 3
-21 17 -40 31 -19 13 -46 34 -60 46 -14 12 -72 61 -130 108 -163 136 -262 226
-440 405 -229 230 -360 376 -530 591 -28 36 -56 72 -63 80 -7 8 -53 71 -103
140 -302 417 -564 880 -754 1335 -34 83 -68 164 -75 180 -21 48 -110 302 -143
405 -107 336 -206 771 -247 1080 -3 25 -8 56 -10 70 -5 30 -16 121 -20 170 -5
54 -16 171 -21 215 -22 204 -22 898 1 1035 2 14 6 63 10 110 4 47 8 96 10 110
1 14 6 54 10 90 4 36 8 67 10 70 2 3 6 30 9 60 8 68 13 106 20 145 3 17 8 46
11 65 13 80 58 292 81 390 14 58 27 112 29 120 2 8 8 35 15 60 7 25 13 50 14
55 26 119 172 546 259 760 41 100 57 137 119 275 131 293 371 712 587 1027 84
122 322 436 351 463 3 3 46 52 95 110 502 588 1152 1113 1865 1507 110 61 433
223 444 223 2 0 37 15 78 34 85 40 304 128 398 161 36 12 112 39 170 59 201
70 629 185 784 212 17 2 38 7 46 9 8 2 26 6 40 9 14 2 52 9 85 15 33 6 78 13
100 16 22 3 65 10 95 15 30 5 96 14 145 20 50 6 106 13 125 15 36 5 93 10 245
21 50 3 91 7 93 9 2 2 11 2 20 0 9 -2 19 -4 22 -4z"/>
<path d="M7267 14834 c-1 -1 -81 -5 -177 -8 -96 -4 -193 -8 -215 -11 -22 -2
-69 -7 -105 -10 -36 -3 -83 -7 -105 -9 -22 -3 -65 -7 -95 -10 -30 -3 -70 -8
-88 -10 -18 -3 -69 -10 -115 -16 -45 -6 -120 -18 -167 -26 -47 -8 -101 -17
-120 -20 -19 -3 -43 -7 -52 -10 -9 -3 -25 -6 -35 -8 -19 -4 -94 -19 -103 -21
-3 0 -23 -4 -45 -9 -22 -4 -112 -25 -200 -48 -88 -22 -164 -41 -170 -42 -28
-7 -114 -31 -235 -68 -284 -85 -596 -204 -915 -348 -89 -40 -388 -191 -467
-236 -43 -24 -79 -44 -82 -44 -10 0 -306 -182 -451 -278 -491 -324 -923 -690
-1341 -1138 -354 -378 -737 -891 -967 -1293 -132 -232 -285 -525 -347 -666
-12 -27 -32 -72 -45 -100 -223 -499 -421 -1145 -510 -1665 -4 -19 -13 -72 -21
-118 -8 -45 -16 -99 -19 -119 -3 -21 -9 -73 -15 -118 -18 -137 -20 -158 -26
-225 -3 -36 -7 -76 -10 -90 -26 -169 -26 -1219 1 -1320 2 -8 7 -53 10 -100 3
-47 7 -92 10 -100 2 -8 6 -42 10 -75 3 -33 8 -73 10 -90 3 -16 7 -48 10 -69 3
-21 7 -48 10 -60 2 -12 7 -39 10 -61 6 -46 51 -288 66 -355 202 -918 553
-1751 1065 -2525 408 -618 906 -1171 1484 -1647 228 -188 669 -502 850 -606
19 -11 85 -49 145 -84 198 -116 444 -243 645 -333 58 -26 123 -55 145 -65 87
-39 378 -151 520 -200 228 -78 699 -209 840 -233 17 -3 86 -17 155 -30 69 -14
143 -28 165 -31 40 -6 73 -12 130 -21 17 -3 50 -7 75 -11 25 -3 56 -7 70 -9
14 -3 52 -7 85 -11 33 -3 71 -8 85 -10 91 -15 266 -19 805 -19 578 0 655 2
842 25 43 5 101 12 128 15 45 5 134 18 205 30 14 2 42 7 64 10 21 4 48 9 60
11 11 2 35 7 51 9 86 15 249 49 320 67 90 23 110 27 145 34 14 2 32 7 40 10 8
3 25 8 37 10 161 31 822 256 1008 344 11 5 45 20 75 33 248 107 560 267 800
411 74 45 139 83 145 85 29 12 398 267 528 365 311 233 535 429 819 716 657
662 1162 1403 1533 2247 34 77 45 102 78 183 45 112 49 123 53 135 1 6 19 51
38 102 95 251 248 770 279 948 3 17 17 86 31 155 14 69 28 143 31 165 4 22 8
47 10 55 2 8 7 38 10 65 4 28 8 57 10 65 3 8 7 38 10 65 3 28 8 57 10 65 2 8
7 44 10 80 4 36 9 79 11 95 2 17 6 62 9 100 3 39 7 90 10 115 26 243 26 983 0
1185 -2 17 -7 64 -10 105 -6 73 -10 117 -20 193 -3 20 -7 56 -10 80 -3 23 -8
53 -10 67 -2 14 -7 45 -10 70 -3 25 -10 70 -15 100 -5 30 -12 72 -16 93 -3 21
-19 102 -35 180 -17 78 -32 153 -35 167 -19 93 -106 415 -156 574 -54 173
-183 530 -228 631 -10 22 -32 74 -50 115 -71 163 -194 415 -274 559 -25 46
-46 85 -46 87 0 24 -365 594 -473 739 -273 367 -476 604 -762 890 -666 665
-1446 1199 -2280 1560 -60 26 -128 55 -150 65 -383 168 -1178 395 -1560 446
-16 2 -52 8 -80 14 -27 5 -70 12 -95 15 -25 3 -56 8 -70 10 -14 2 -50 7 -80
10 -30 3 -66 8 -80 10 -33 5 -119 14 -205 20 -38 3 -88 7 -110 10 -107 11
-688 27 -698 19z m473 -678 c91 -4 179 -9 195 -11 17 -2 66 -6 111 -10 45 -3
90 -7 102 -10 11 -2 49 -6 84 -9 34 -3 72 -8 84 -10 12 -2 45 -7 75 -11 30 -3
61 -8 69 -10 8 -2 33 -7 55 -10 23 -3 52 -8 65 -10 14 -3 41 -8 60 -10 19 -3
46 -8 60 -11 14 -3 36 -8 50 -10 14 -3 77 -16 140 -30 63 -15 121 -27 130 -29
8 -2 51 -13 95 -25 44 -12 103 -27 130 -35 152 -40 387 -119 615 -205 83 -32
332 -136 358 -150 9 -5 93 -46 186 -91 922 -446 1780 -1155 2411 -1994 50 -66
115 -156 145 -200 30 -44 57 -82 60 -85 21 -21 190 -293 281 -453 76 -132 240
-455 286 -562 108 -248 168 -402 236 -605 140 -417 220 -755 292 -1235 2 -16
7 -52 10 -80 3 -27 8 -63 10 -80 2 -16 7 -64 11 -105 3 -41 8 -91 10 -110 19
-193 25 -678 11 -944 -5 -82 -10 -152 -11 -155 -2 -3 -6 -49 -10 -102 -4 -53
-8 -104 -10 -115 -2 -10 -7 -48 -11 -84 -4 -36 -8 -72 -10 -80 -3 -17 -14 -90
-21 -135 -2 -16 -6 -41 -9 -55 -3 -14 -7 -41 -10 -60 -7 -41 -22 -125 -30
-160 -3 -14 -8 -40 -11 -59 -19 -115 -134 -534 -199 -723 -41 -123 -77 -227
-79 -233 -1 -5 -8 -23 -15 -40 -6 -16 -17 -43 -23 -60 -79 -209 -238 -553
-344 -745 -83 -150 -98 -177 -157 -275 -105 -175 -314 -486 -389 -580 -5 -5
-40 -50 -79 -100 -112 -142 -128 -162 -228 -279 -493 -572 -1155 -1109 -1821
-1475 -52 -29 -104 -57 -115 -64 -72 -40 -230 -117 -359 -176 -458 -209 -941
-367 -1437 -470 -150 -31 -176 -36 -244 -46 -23 -3 -52 -7 -65 -10 -25 -5 -72
-12 -137 -20 -21 -2 -74 -9 -118 -14 -44 -6 -109 -13 -145 -16 -36 -4 -78 -8
-95 -10 -187 -24 -995 -25 -1122 -1 -10 2 -56 7 -103 11 -47 3 -96 8 -110 10
-14 2 -50 6 -80 10 -30 3 -66 8 -80 10 -42 8 -83 14 -125 20 -22 2 -53 7 -70
10 -16 3 -39 7 -50 9 -23 4 -93 17 -115 21 -159 31 -400 89 -561 135 -134 39
-425 132 -464 149 -18 8 -107 43 -195 76 -185 71 -580 260 -785 375 -441 250
-860 551 -1235 888 -91 82 -375 364 -450 447 -96 106 -230 265 -309 365 -46
58 -91 114 -100 125 -16 19 -99 134 -131 181 -420 617 -655 1079 -876 1719
-63 184 -165 542 -190 670 -2 11 -11 52 -19 90 -41 187 -93 507 -109 675 -3
36 -9 88 -11 115 -37 369 -37 853 0 1250 11 122 39 347 51 415 2 14 9 54 14
90 146 908 529 1862 1068 2655 140 207 394 538 499 650 10 11 43 47 72 80 68
76 307 320 397 405 656 618 1461 1115 2304 1424 273 99 678 217 905 261 22 5
45 9 50 10 6 2 73 14 150 28 142 26 171 31 260 42 28 4 57 8 65 10 8 2 47 7
85 10 39 4 77 8 85 10 8 2 51 7 95 10 44 4 96 8 115 10 19 3 103 7 185 11 83
3 151 7 152 7 4 5 348 -1 493 -7z"/>
</g>
</svg>
